# xmcd
#
# Track frame offsets: 
#        151
#        13801
#        30720
#        48695
#        65580
#        86387
#        96624
#        121011
#        130075
#        138450
#        156531
#        173655
#        196174
#        213903
#        229080
#        236661
#
# Disc length: 3380 seconds
#
# Revision: 1
# Processed by: cddbd v1.5.2PL0 Copyright (c) Steve Scherf et al.
# Submitted via: ExactAudioCopy v0.99pb5
#
DISCID=df0d3210
DTITLE=Various Artist - 1970's 中國歌典 [CD 2 of 2)
DYEAR=2005
DGENRE=National Folk
TTITLE0=鄭緒嵐 - 太陽島上
TTITLE1=卡小貞 - 泉水叮咚響
TTITLE2=關牧村 - 吐魯番的葡萄熟了
TTITLE3=李雙江 - 再見吧！媽媽
TTITLE4=關牧村 - 月光下的鳳尾竹
TTITLE5=程桂蘭 - 太湖美
TTITLE6=葉佩英 - 我愛你，中國
TTITLE7=李谷一 - 潔白的羽毛寄深情
TTITLE8=雲南省歌舞團 - 阿佤人民唱新歌
TTITLE9=恩風 - 山丹丹開花紅艷艷
TTITLE10=李谷一 - 絨花
TTITLE11=馬玉濤 - 老房東查鋪
TTITLE12=李谷一 - 妹妹找哥淚\花流
TTITLE13=關貴敏 - 浪花裡飛出歡樂的歌
TTITLE14=關牧村 - 假如你要認識我
TTITLE15=不知名歌星 - 大海一樣的深情
EXTD=
EXTT0=
EXTT1=
EXTT2=
EXTT3=
EXTT4=
EXTT5=
EXTT6=
EXTT7=
EXTT8=
EXTT9=
EXTT10=
EXTT11=
EXTT12=
EXTT13=
EXTT14=
EXTT15=
PLAYORDER=
